<svg width="128" height="128" viewBox="0 0 128 128" fill="none" xmlns="http://www.w3.org/2000/svg">
<path d="M101.617 114.019H91.6548C85.7938 114.019 82.4318 107.409 79.4668 101.577C77.3218 97.36 74.8918 92.581 72.4538 92.581H53.9768C51.1778 92.581 48.7418 97.384 46.3858 102.03C43.3958 107.924 40.3048 114.019 34.7778 114.019H24.8178C18.4218 114.019 13.2178 108.817 13.2178 102.42V59.477C13.2178 53.081 18.4208 47.877 24.8178 47.877H101.618C108.014 47.877 113.218 53.081 113.218 59.477V102.42C113.217 108.816 108.014 114.019 101.617 114.019ZM53.9768 88.58H72.4558C77.3478 88.58 80.1088 94.013 83.0338 99.764C85.5968 104.805 88.2478 110.019 91.6558 110.019H101.618C105.808 110.019 109.218 106.61 109.218 102.42V59.477C109.218 55.287 105.809 51.877 101.618 51.877H24.8178C20.6278 51.877 17.2178 55.287 17.2178 59.477V102.42C17.2178 106.609 20.6268 110.019 24.8178 110.019H34.7778C37.8488 110.019 40.3758 105.038 42.8178 100.221C45.7198 94.498 48.7208 88.58 53.9768 88.58Z" fill="white"/>
<path d="M37.1162 84.0659C30.7752 84.0659 25.6162 78.9059 25.6162 72.5659C25.6162 66.2239 30.7752 61.0659 37.1162 61.0659C43.4572 61.0659 48.6162 66.2249 48.6162 72.5659C48.6162 78.9059 43.4572 84.0659 37.1162 84.0659ZM37.1162 65.0659C32.9802 65.0659 29.6162 68.4299 29.6162 72.5659C29.6162 76.7009 32.9802 80.0659 37.1162 80.0659C41.2522 80.0659 44.6162 76.7009 44.6162 72.5659C44.6162 68.4309 41.2522 65.0659 37.1162 65.0659Z" fill="white"/>
<path d="M89.7412 70.1679C88.6372 70.1679 87.7412 69.2719 87.7412 68.1679V63.5659C87.7412 62.4619 88.6372 61.5659 89.7412 61.5659C90.8452 61.5659 91.7412 62.4619 91.7412 63.5659V68.1679C91.7412 69.2709 90.8462 70.1679 89.7412 70.1679Z" fill="white"/>
<path d="M89.7412 83.5659C88.6372 83.5659 87.7412 82.6699 87.7412 81.5659V76.9639C87.7412 75.8589 88.6372 74.9639 89.7412 74.9639C90.8452 74.9639 91.7412 75.8589 91.7412 76.9639V81.5659C91.7412 82.6699 90.8462 83.5659 89.7412 83.5659Z" fill="white"/>
<path d="M85.6201 74.5659H81.0181C79.9141 74.5659 79.0181 73.6699 79.0181 72.5659C79.0181 71.4619 79.9141 70.5659 81.0181 70.5659H85.6201C86.7241 70.5659 87.6201 71.4619 87.6201 72.5659C87.6201 73.6699 86.7251 74.5659 85.6201 74.5659Z" fill="white"/>
<path d="M98.4663 74.5659H93.8643C92.7603 74.5659 91.8643 73.6699 91.8643 72.5659C91.8643 71.4619 92.7603 70.5659 93.8643 70.5659H98.4663C99.5703 70.5659 100.466 71.4619 100.466 72.5659C100.466 73.6699 99.5703 74.5659 98.4663 74.5659Z" fill="white"/>
<path d="M63.042 51.877C61.938 51.877 61.042 50.981 61.042 49.877V16.019C61.042 14.915 61.938 14.019 63.042 14.019C64.146 14.019 65.042 14.915 65.042 16.019V49.877C65.042 50.981 64.146 51.877 63.042 51.877Z" fill="white"/>
</svg>
