<svg width="30" height="30" viewBox="0 0 30 30" fill="none" xmlns="http://www.w3.org/2000/svg">
<path d="M15 30C12.0333 30 9.13319 29.1203 6.66645 27.4721C4.19972 25.8238 2.27713 23.4812 1.14181 20.7403C0.00649941 17.9994 -0.290551 14.9834 0.288228 12.0737C0.867006 9.16394 2.29562 6.49119 4.3934 4.3934C6.49119 2.29562 9.16394 0.867006 12.0737 0.288228C14.9834 -0.290551 17.9994 0.00649941 20.7403 1.14181C23.4812 2.27713 25.8238 4.19972 27.4721 6.66645C29.1203 9.13319 30 12.0333 30 15C30 18.9783 28.4197 22.7936 25.6066 25.6066C22.7936 28.4197 18.9783 30 15 30ZM15 2.00001C12.4288 2.00001 9.91543 2.76244 7.77759 4.1909C5.63975 5.61936 3.97351 7.64968 2.98957 10.0251C2.00563 12.4006 1.74819 15.0144 2.2498 17.5362C2.75141 20.0579 3.98954 22.3743 5.80762 24.1924C7.6257 26.0105 9.94208 27.2486 12.4638 27.7502C14.9856 28.2518 17.5995 27.9944 19.9749 27.0104C22.3503 26.0265 24.3807 24.3603 25.8091 22.2224C27.2376 20.0846 28 17.5712 28 15C28 11.5522 26.6304 8.24559 24.1924 5.80762C21.7544 3.36965 18.4478 2.00001 15 2.00001V2.00001Z" fill="white"/>
<path d="M12.6701 21.0001C12.533 20.9997 12.3975 20.971 12.2719 20.916C12.1463 20.8609 12.0334 20.7807 11.9401 20.6801L7.27015 15.6801C7.11058 15.4833 7.03165 15.2333 7.04931 14.9806C7.06697 14.7279 7.17989 14.4912 7.36527 14.3186C7.55065 14.1459 7.79467 14.05 8.04802 14.0503C8.30137 14.0506 8.54516 14.147 8.73015 14.3201L12.6701 18.5301L21.2701 9.32011C21.3565 9.21363 21.4638 9.12603 21.5854 9.06277C21.7071 8.99951 21.8404 8.96194 21.9772 8.95238C22.1139 8.94283 22.2512 8.9615 22.3805 9.00723C22.5097 9.05296 22.6282 9.12478 22.7285 9.21823C22.8288 9.31168 22.9088 9.42475 22.9636 9.55043C23.0184 9.67611 23.0467 9.81171 23.0469 9.94881C23.047 10.0859 23.019 10.2216 22.9645 10.3474C22.91 10.4732 22.8303 10.5864 22.7301 10.6801L13.4001 20.6801C13.3069 20.7807 13.194 20.8609 13.0684 20.916C12.9428 20.971 12.8073 20.9997 12.6701 21.0001Z" fill="white"/>
</svg>
