<svg width="128" height="128" viewBox="0 0 128 128" fill="none" xmlns="http://www.w3.org/2000/svg">
<path d="M105.051 61.4402H23.0252C20.1462 61.4402 17.8042 59.0992 17.8042 56.2212V40.5852C17.8042 37.7072 20.1462 35.3652 23.0252 35.3652H105.05C107.928 35.3652 110.269 37.7072 110.269 40.5852V56.2222C110.27 59.0992 107.929 61.4402 105.051 61.4402ZM23.0252 39.3652C22.3632 39.3652 21.8042 39.9242 21.8042 40.5852V56.2222C21.8042 56.8942 22.3522 57.4412 23.0252 57.4412H105.05C105.722 57.4412 106.269 56.8942 106.269 56.2222V40.5852C106.269 39.9232 105.71 39.3652 105.05 39.3652H23.0252Z" fill="white"/>
<path d="M93.6122 115.006H34.4602C28.9182 115.006 24.4092 110.498 24.4092 104.955V59.4399C24.4092 58.3359 25.3052 57.4399 26.4092 57.4399C27.5132 57.4399 28.4092 58.3359 28.4092 59.4399V104.955C28.4092 108.292 31.1242 111.006 34.4602 111.006H93.6122C96.9472 111.006 99.6612 108.292 99.6612 104.955V59.4399C99.6612 58.3359 100.557 57.4399 101.661 57.4399C102.765 57.4399 103.661 58.3359 103.661 59.4399V104.955C103.661 110.498 99.1532 115.006 93.6122 115.006Z" fill="white"/>
<path d="M64.0371 115.006C62.9331 115.006 62.0371 114.111 62.0371 113.006V59.4399C62.0371 58.3359 62.9331 57.4399 64.0371 57.4399C65.1411 57.4399 66.0371 58.3359 66.0371 59.4399V113.005C66.0371 114.111 65.1421 115.006 64.0371 115.006Z" fill="white"/>
<path d="M39.0749 39.3581C32.8149 35.9661 30.4789 28.114 33.8679 21.853C37.2549 15.595 45.1059 13.258 51.3689 16.644C60.9099 21.812 66.0619 36.23 66.2759 36.841L62.5029 38.168C62.4549 38.032 57.6419 24.591 49.4659 20.162C45.1409 17.824 39.7229 19.438 37.3859 23.757C35.0469 28.08 36.6589 33.5 40.9819 35.841L39.0749 39.3581Z" fill="white"/>
<path d="M88.9948 39.3578L87.0908 35.8398C89.1858 34.7048 90.7128 32.8238 91.3928 30.5428C92.0718 28.2608 91.8208 25.8508 90.6858 23.7578C89.5538 21.6628 87.6738 20.1368 85.3928 19.4578C83.1108 18.7788 80.7028 19.0288 78.6088 20.1618C70.4328 24.5898 65.6198 38.0308 65.5718 38.1668L61.7988 36.8398C62.0128 36.2288 67.1638 21.8108 76.7048 16.6438C79.7368 15.0018 83.2298 14.6398 86.5338 15.6238C89.8408 16.6068 92.5638 18.8198 94.2048 21.8528C95.8478 24.8848 96.2108 28.3758 95.2268 31.6828C94.2418 34.9888 92.0288 37.7138 88.9948 39.3578Z" fill="white"/>
<path d="M101.661 88.2241H26.4092C25.3052 88.2241 24.4092 87.3281 24.4092 86.2241C24.4092 85.1201 25.3052 84.2241 26.4092 84.2241H101.661C102.765 84.2241 103.661 85.1201 103.661 86.2241C103.661 87.3281 102.766 88.2241 101.661 88.2241Z" fill="white"/>
</svg>
