<svg width="128" height="128" viewBox="0 0 128 128" fill="none" xmlns="http://www.w3.org/2000/svg">
<path d="M64.007 113.986C63.538 113.986 63.069 113.822 62.694 113.494C61.069 112.078 22.82 78.5468 13.089 52.5448C11.593 49.0848 10.834 45.4078 10.834 41.6158C10.834 26.4058 23.209 14.0308 38.42 14.0308C50.024 14.0308 59.978 21.2318 64.047 31.3998C68.163 21.3338 78.066 14.2228 89.596 14.2228C104.808 14.2228 117.184 26.5968 117.184 41.8078C117.184 42.3568 117.163 42.9008 117.131 43.4428C117.046 68.0948 67.437 111.65 65.322 113.494C64.945 113.822 64.476 113.986 64.007 113.986ZM38.419 18.0308C25.414 18.0308 14.833 28.6118 14.833 41.6158C14.833 44.8738 15.487 48.0308 16.777 50.9998C16.792 51.0318 16.804 51.0648 16.817 51.0978C25.186 73.5338 57.115 103.104 64.006 109.309C71.953 102.161 113.129 64.1158 113.129 43.3798C113.129 43.3378 113.13 43.2968 113.133 43.2558C113.162 42.7768 113.182 42.2938 113.182 41.8078C113.182 28.8028 102.601 18.2228 89.594 18.2228C76.587 18.2228 66.007 28.8028 66.007 41.8078C66.007 41.9258 66.012 42.0408 66.016 42.1578L66.026 42.4578C66.037 42.9968 65.832 43.5158 65.455 43.8998C64.701 44.6708 63.323 44.6678 62.571 43.8938C62.195 43.5058 61.971 42.9818 61.988 42.4418L61.994 42.2578C62.001 42.0438 62.008 41.8308 62.008 41.6168C62.007 28.6108 51.426 18.0308 38.419 18.0308Z" fill="white"/>
</svg>
