<svg width="128" height="128" viewBox="0 0 128 128" fill="none" xmlns="http://www.w3.org/2000/svg">
<path d="M25.5021 109.092L16.5161 100.104L59.5671 57.0521C60.3481 56.2711 61.6141 56.2711 62.3951 57.0521C63.1761 57.8331 63.1761 59.0991 62.3951 59.8801L22.1721 100.104L25.5021 103.435L65.9901 62.9471C66.7711 62.1661 68.0371 62.1661 68.8181 62.9471C69.5991 63.7281 69.5991 64.9941 68.8181 65.7751L25.5021 109.092Z" fill="white"/>
<path d="M47.0248 102.92C46.5128 102.92 46.0018 102.725 45.6108 102.334L38.0198 94.746C37.2388 93.965 37.2388 92.698 38.0198 91.917C38.7988 91.136 40.0668 91.137 40.8478 91.916L48.4388 99.505C49.2198 100.286 49.2198 101.553 48.4388 102.334C48.0498 102.725 47.5368 102.92 47.0248 102.92Z" fill="white"/>
<path d="M43.2262 113.95C42.7142 113.95 42.2032 113.755 41.8122 113.364L30.6072 102.159C29.8262 101.379 29.8262 100.111 30.6072 99.3311C31.3882 98.5511 32.6542 98.5511 33.4352 99.3311L44.6402 110.536C45.4212 111.316 45.4212 112.584 44.6402 113.364C44.2492 113.755 43.7372 113.95 43.2262 113.95Z" fill="white"/>
<path d="M97.0752 42.0551C89.3352 42.0541 83.0352 35.7561 83.0332 28.0151C83.0332 20.2751 89.3322 13.9771 97.0742 13.9741C100.824 13.9741 104.35 15.4341 107.002 18.0861C109.654 20.7381 111.115 24.2641 111.114 28.0141C111.114 35.7561 104.816 42.0551 97.0752 42.0551ZM97.0752 17.9741C91.5382 17.9751 87.0332 22.4791 87.0332 28.0141C87.0352 33.5491 91.5402 38.0541 97.0752 38.0551C102.61 38.0551 107.114 33.5511 107.114 28.0141C107.114 25.3321 106.07 22.8111 104.174 20.9151C102.278 19.0191 99.7562 17.9741 97.0752 17.9741Z" fill="white"/>
<path d="M97.0772 67.2343C89.3362 67.2343 83.0352 60.9363 83.0332 53.1953C83.0352 45.4533 89.3352 39.1533 97.0752 39.1533C104.817 39.1543 111.115 45.4533 111.115 53.1953C111.116 56.9443 109.656 60.4703 107.003 63.1223C104.351 65.7733 100.826 67.2343 97.0772 67.2343ZM97.0752 43.1533C91.5402 43.1543 87.0352 47.6593 87.0332 53.1953C87.0352 58.7303 91.5402 63.2343 97.0772 63.2343C99.7582 63.2343 102.278 62.1903 104.175 60.2933C106.072 58.3963 107.116 55.8763 107.115 53.1953C107.115 47.6593 102.611 43.1543 97.0752 43.1533Z" fill="white"/>
<path d="M72.9342 42.0551H72.9292C65.1912 42.0551 58.8912 35.7581 58.8882 28.0171C58.8902 20.2731 65.1902 13.9751 72.9302 13.9751C80.6712 13.9761 86.9692 20.2741 86.9692 28.0141C86.9702 31.7631 85.5102 35.2891 82.8592 37.9421C80.2072 40.5941 76.6832 42.0551 72.9342 42.0551ZM72.9302 17.9751C67.3952 17.9751 62.8902 22.4791 62.8882 28.0161C62.8912 33.5511 67.3952 38.0551 72.9302 38.0551H72.9342C75.6142 38.0551 78.1342 37.0111 80.0312 35.1141C81.9272 33.2181 82.9702 30.6961 82.9692 28.0151C82.9692 22.4791 78.4652 17.9761 72.9302 17.9751Z" fill="white"/>
<path d="M72.9301 67.2339C65.1881 67.2339 58.8901 60.9349 58.8901 53.1919C58.8891 49.4419 60.3491 45.9169 63.0001 43.2649C65.6511 40.6129 69.1791 39.1519 72.9301 39.1519C80.6701 39.1519 86.9691 45.4509 86.9711 53.1939C86.9691 60.9369 80.6701 67.2339 72.9301 67.2339ZM72.9301 43.1529C70.2471 43.1529 67.7251 44.1969 65.8281 46.0939C63.9321 47.9899 62.8891 50.5109 62.8901 53.1929C62.8901 58.7309 67.3941 63.2349 72.9301 63.2349C78.4651 63.2349 82.9691 58.7309 82.9711 53.1949C82.9691 47.6579 78.4651 43.1529 72.9301 43.1529Z" fill="white"/>
<path d="M85.002 48.0031C83.026 48.0031 81.169 47.2341 79.771 45.8361C76.887 42.9521 76.887 38.2581 79.77 35.3731C81.168 33.9751 83.027 33.2051 85.003 33.2051C86.979 33.2051 88.837 33.9751 90.234 35.3731C93.119 38.2601 93.117 42.9541 90.231 45.8371C88.836 47.2331 86.979 48.0031 85.002 48.0031ZM85.003 37.2041C84.095 37.2041 83.241 37.5581 82.599 38.2001C81.275 39.5261 81.275 41.6821 82.599 43.0071C83.884 44.2901 86.121 44.2911 87.405 43.0071C88.731 41.6821 88.731 39.5261 87.406 38.1991C86.764 37.5581 85.91 37.2041 85.003 37.2041Z" fill="white"/>
</svg>
