<svg width="128" height="128" viewBox="0 0 128 128" fill="none" xmlns="http://www.w3.org/2000/svg">
<path d="M63.9989 104.752C41.5549 104.752 23.2949 86.4922 23.2949 64.0482C23.2949 41.6042 41.5549 23.3452 63.9989 23.3452C86.4429 23.3452 104.703 41.6042 104.703 64.0482C104.703 86.4922 86.4429 104.752 63.9989 104.752ZM63.9989 27.3452C43.7609 27.3452 27.2949 43.8102 27.2949 64.0482C27.2949 84.2872 43.7609 100.752 63.9989 100.752C84.2369 100.752 100.703 84.2872 100.703 64.0482C100.703 43.8102 84.2369 27.3452 63.9989 27.3452Z" fill="white"/>
<path d="M63.999 83.9618C53.018 83.9618 44.084 75.0288 44.084 64.0478C44.084 53.0668 53.018 44.1318 63.999 44.1318C74.98 44.1318 83.915 53.0658 83.915 64.0478C83.915 75.0298 74.98 83.9618 63.999 83.9618ZM63.999 48.1318C55.224 48.1318 48.084 55.2718 48.084 64.0478C48.084 72.8218 55.224 79.9618 63.999 79.9618C72.775 79.9618 79.915 72.8218 79.915 64.0478C79.915 55.2718 72.775 48.1318 63.999 48.1318Z" fill="white"/>
<path d="M63.999 27.3448C62.895 27.3448 61.999 26.4488 61.999 25.3448V12.8818C61.999 11.7778 62.895 10.8818 63.999 10.8818C65.103 10.8818 65.999 11.7778 65.999 12.8818V25.3438C65.999 26.4488 65.104 27.3448 63.999 27.3448Z" fill="white"/>
<path d="M63.999 117.146C62.895 117.146 61.999 116.25 61.999 115.146V102.752C61.999 101.648 62.895 100.752 63.999 100.752C65.103 100.752 65.999 101.648 65.999 102.752V115.146C65.999 116.25 65.104 117.146 63.999 117.146Z" fill="white"/>
<path d="M25.2952 66.0478H12.8682C11.7642 66.0478 10.8682 65.1518 10.8682 64.0478C10.8682 62.9428 11.7642 62.0479 12.8682 62.0479H25.2952C26.3992 62.0479 27.2952 62.9428 27.2952 64.0478C27.2952 65.1518 26.3992 66.0478 25.2952 66.0478Z" fill="white"/>
<path d="M115.132 66.0478H102.703C101.599 66.0478 100.703 65.1518 100.703 64.0478C100.703 62.9428 101.599 62.0479 102.703 62.0479H115.132C116.236 62.0479 117.132 62.9428 117.132 64.0478C117.132 65.1518 116.236 66.0478 115.132 66.0478Z" fill="white"/>
</svg>
