<svg width="128" height="128" viewBox="0 0 128 128" fill="none" xmlns="http://www.w3.org/2000/svg">
<path d="M64.0522 114.049C38.6192 114.049 17.9282 93.3578 17.9282 67.9258V14.0488H38.4192V67.9258C38.4192 82.0588 49.9182 93.5578 64.0522 93.5578C78.1862 93.5578 89.6842 82.0588 89.6842 67.9258V14.0488H110.173V67.9258C110.173 93.3568 89.4832 114.049 64.0522 114.049ZM21.9282 18.0488V67.9258C21.9282 91.1528 40.8242 110.049 64.0522 110.049C87.2782 110.049 106.173 91.1528 106.173 67.9258V18.0488H93.6842V67.9258C93.6842 84.2658 80.3912 97.5578 64.0522 97.5578C47.7122 97.5578 34.4192 84.2658 34.4192 67.9258V18.0488H21.9282Z" fill="white"/>
<path d="M36.4192 37.396H19.9282C18.8242 37.396 17.9282 36.5 17.9282 35.396C17.9282 34.292 18.8242 33.396 19.9282 33.396H36.4192C37.5232 33.396 38.4192 34.292 38.4192 35.396C38.4192 36.5 37.5232 37.396 36.4192 37.396Z" fill="white"/>
<path d="M108.173 37.396H91.6841C90.5801 37.396 89.6841 36.5 89.6841 35.396C89.6841 34.292 90.5801 33.396 91.6841 33.396H108.173C109.277 33.396 110.173 34.292 110.173 35.396C110.173 36.5 109.277 37.396 108.173 37.396Z" fill="white"/>
</svg>
