<svg width="32" height="32" viewBox="0 0 32 32" fill="none" xmlns="http://www.w3.org/2000/svg">
<path d="M23 31H9C8.20435 31 7.44129 30.6839 6.87868 30.1213C6.31607 29.5587 6 28.7956 6 28V4C6 3.20435 6.31607 2.44129 6.87868 1.87868C7.44129 1.31607 8.20435 1 9 1H23C23.7956 1 24.5587 1.31607 25.1213 1.87868C25.6839 2.44129 26 3.20435 26 4V28C26 28.7956 25.6839 29.5587 25.1213 30.1213C24.5587 30.6839 23.7956 31 23 31V31ZM9 3C8.73478 3 8.48043 3.10536 8.29289 3.29289C8.10536 3.48043 8 3.73478 8 4V28C8 28.2652 8.10536 28.5196 8.29289 28.7071C8.48043 28.8946 8.73478 29 9 29H23C23.2652 29 23.5196 28.8946 23.7071 28.7071C23.8946 28.5196 24 28.2652 24 28V4C24 3.73478 23.8946 3.48043 23.7071 3.29289C23.5196 3.10536 23.2652 3 23 3H9Z" fill="white"/>
<path d="M25 7H7C6.73478 7 6.48043 6.89464 6.29289 6.70711C6.10536 6.51957 6 6.26522 6 6C6 5.73478 6.10536 5.48043 6.29289 5.29289C6.48043 5.10536 6.73478 5 7 5H25C25.2652 5 25.5196 5.10536 25.7071 5.29289C25.8946 5.48043 26 5.73478 26 6C26 6.26522 25.8946 6.51957 25.7071 6.70711C25.5196 6.89464 25.2652 7 25 7Z" fill="white"/>
<path d="M25 25H7C6.73478 25 6.48043 24.8946 6.29289 24.7071C6.10536 24.5196 6 24.2652 6 24C6 23.7348 6.10536 23.4804 6.29289 23.2929C6.48043 23.1054 6.73478 23 7 23H25C25.2652 23 25.5196 23.1054 25.7071 23.2929C25.8946 23.4804 26 23.7348 26 24C26 24.2652 25.8946 24.5196 25.7071 24.7071C25.5196 24.8946 25.2652 25 25 25Z" fill="white"/>
<path d="M17 26H15V28H17V26Z" fill="white"/>
</svg>
