<svg width="128" height="128" viewBox="0 0 128 128" fill="none" xmlns="http://www.w3.org/2000/svg">
<path d="M89.8429 64.8152C88.7389 64.8152 87.8429 63.9192 87.8429 62.8152V33.5702C87.8429 27.9442 83.2659 23.3672 77.6409 23.3672H50.3929C44.7689 23.3672 40.1929 27.9442 40.1929 33.5702V62.8152C40.1929 63.9192 39.2969 64.8152 38.1929 64.8152C37.0889 64.8152 36.1929 63.9192 36.1929 62.8152V33.5702C36.1929 25.7382 42.5629 19.3672 50.3929 19.3672H77.6409C85.4719 19.3672 91.8429 25.7382 91.8429 33.5702V62.8152C91.8429 63.9192 90.9469 64.8152 89.8429 64.8152Z" fill="white"/>
<path d="M91.8429 101.148H36.1929V73.0161H91.8429V101.148ZM40.1919 97.1481H87.8419V77.0161H40.1919V97.1481Z" fill="white"/>
<path d="M40.1919 101.148H25.0879V68.137C18.8089 67.17 13.9839 61.731 13.9839 55.186C13.9839 47.96 19.8619 42.082 27.0879 42.082C34.3139 42.082 40.1919 47.961 40.1919 55.186V101.148ZM29.0879 97.148H36.1919V55.186C36.1919 50.165 32.1079 46.082 27.0879 46.082C22.0679 46.082 17.9839 50.166 17.9839 55.186C17.9839 60.206 22.0679 64.289 27.0879 64.289H29.0879V97.148Z" fill="white"/>
<path d="M102.944 101.148H87.8428V55.186C87.8428 47.96 93.7198 42.082 100.945 42.082C108.17 42.082 114.048 47.961 114.048 55.186C114.048 61.731 109.224 67.17 102.945 68.137V101.148H102.944ZM91.8428 97.148H98.9448V64.288H100.945C105.965 64.288 110.048 60.205 110.048 55.185C110.048 50.164 105.965 46.081 100.945 46.081C95.9258 46.081 91.8428 50.165 91.8428 55.185V97.148Z" fill="white"/>
<path d="M38.1919 107.238C37.0879 107.238 36.1919 106.342 36.1919 105.238V100.834C36.1919 99.73 37.0879 98.834 38.1919 98.834C39.2959 98.834 40.1919 99.73 40.1919 100.834V105.238C40.1919 106.342 39.2969 107.238 38.1919 107.238Z" fill="white"/>
<path d="M89.8428 107.238C88.7388 107.238 87.8428 106.342 87.8428 105.238V100.834C87.8428 99.73 88.7388 98.834 89.8428 98.834C90.9468 98.834 91.8428 99.73 91.8428 100.834V105.238C91.8428 106.342 90.9468 107.238 89.8428 107.238Z" fill="white"/>
</svg>
