<svg width="128" height="128" viewBox="0 0 128 128" fill="none" xmlns="http://www.w3.org/2000/svg">
<path d="M64.079 95.5432C46.689 95.5432 32.542 81.3952 32.542 64.0052C32.542 46.6162 46.689 32.4702 64.079 32.4702C81.469 32.4702 95.616 46.6162 95.616 64.0052C95.616 81.3952 81.469 95.5432 64.079 95.5432ZM64.079 36.4702C48.895 36.4702 36.542 48.8232 36.542 64.0052C36.542 79.1892 48.896 91.5432 64.079 91.5432C79.262 91.5432 91.616 79.1892 91.616 64.0052C91.616 48.8232 79.263 36.4702 64.079 36.4702Z" fill="white"/>
<path d="M64.0791 114.086C62.9751 114.086 62.0791 113.19 62.0791 112.086V101.41C62.0791 100.305 62.9751 99.4097 64.0791 99.4097C65.1831 99.4097 66.0791 100.305 66.0791 101.41V112.086C66.0791 113.189 65.1841 114.086 64.0791 114.086Z" fill="white"/>
<path d="M64.0791 28.6028C62.9751 28.6028 62.0791 27.7068 62.0791 26.6028V15.9258C62.0791 14.8218 62.9751 13.9258 64.0791 13.9258C65.1831 13.9258 66.0791 14.8218 66.0791 15.9258V26.6028C66.0791 27.7078 65.1841 28.6028 64.0791 28.6028Z" fill="white"/>
<path d="M112.159 66.0059H101.483C100.379 66.0059 99.4829 65.1099 99.4829 64.0059C99.4829 62.9019 100.379 62.0059 101.483 62.0059H112.159C113.263 62.0059 114.159 62.9019 114.159 64.0059C114.159 65.1089 113.264 66.0059 112.159 66.0059Z" fill="white"/>
<path d="M26.676 66.0059H16C14.896 66.0059 14 65.1099 14 64.0059C14 62.9019 14.896 62.0059 16 62.0059H26.676C27.78 62.0059 28.676 62.9019 28.676 64.0059C28.676 65.1089 27.78 66.0059 26.676 66.0059Z" fill="white"/>
<path d="M98.0746 100.004C97.5626 100.004 97.0516 99.8088 96.6606 99.4178L89.1126 91.8688C88.3316 91.0878 88.3316 89.8218 89.1126 89.0408C89.8936 88.2598 91.1596 88.2598 91.9406 89.0408L99.4886 96.5898C100.27 97.3708 100.27 98.6368 99.4886 99.4178C99.0986 99.8088 98.5866 100.004 98.0746 100.004Z" fill="white"/>
<path d="M37.6298 39.558C37.1178 39.558 36.6068 39.363 36.2158 38.972L28.6678 31.423C27.8868 30.642 27.8868 29.375 28.6678 28.595C29.4488 27.814 30.7148 27.814 31.4958 28.595L39.0438 36.144C39.8248 36.925 39.8248 38.192 39.0438 38.972C38.6528 39.363 38.1418 39.558 37.6298 39.558Z" fill="white"/>
<path d="M90.5266 39.558C90.0146 39.558 89.5036 39.363 89.1126 38.972C88.3316 38.191 88.3316 36.924 89.1126 36.144L96.6626 28.595C97.4436 27.814 98.7096 27.814 99.4906 28.595C100.272 29.376 100.272 30.643 99.4906 31.423L91.9406 38.972C91.5506 39.363 91.0386 39.558 90.5266 39.558Z" fill="white"/>
<path d="M30.0818 100.004C29.5698 100.004 29.0588 99.8088 28.6678 99.4178C27.8868 98.6368 27.8868 97.3688 28.6678 96.5898L36.2168 89.0408C36.9978 88.2598 38.2638 88.2598 39.0448 89.0408C39.8258 89.8218 39.8258 91.0898 39.0448 91.8688L31.4958 99.4178C31.1048 99.8088 30.5938 100.004 30.0818 100.004Z" fill="white"/>
</svg>
