<svg width="128" height="128" viewBox="0 0 128 128" fill="none" xmlns="http://www.w3.org/2000/svg">
<path d="M84.5209 81.4359C83.9439 81.4359 83.3719 81.1879 82.9759 80.7069C78.2249 74.9379 71.2169 71.6299 63.7489 71.6299C56.5229 71.6299 49.6639 74.7639 44.9289 80.2309C44.2059 81.0649 42.9429 81.1569 42.1079 80.4319C41.2729 79.7079 41.1829 78.4459 41.9059 77.6099C47.4019 71.2679 55.3639 67.6309 63.7499 67.6309C72.4179 67.6309 80.5509 71.4699 86.0639 78.1649C86.7659 79.0189 86.6439 80.2779 85.7919 80.9799C85.4189 81.2869 84.9679 81.4359 84.5209 81.4359Z" fill="white"/>
<path d="M98.7802 64.7118C98.2312 64.7118 97.6842 64.4868 97.2892 64.0458C88.7572 54.5168 76.5312 49.0518 63.7482 49.0518C51.2152 49.0518 39.1502 54.3418 30.6482 63.5638C29.8992 64.3748 28.6352 64.4278 27.8222 63.6778C27.0092 62.9288 26.9592 61.6638 27.7072 60.8518C36.9652 50.8098 50.1012 45.0508 63.7482 45.0508C77.6672 45.0508 90.9782 51.0018 100.269 61.3758C101.005 62.1988 100.936 63.4628 100.113 64.1998C99.7312 64.5428 99.2552 64.7118 98.7802 64.7118Z" fill="white"/>
<path d="M112.047 48.9842C111.509 48.9842 110.973 48.7682 110.578 48.3412C98.543 35.3172 81.473 27.8472 63.746 27.8472C46.016 27.8472 29.547 34.9532 17.375 47.8562C16.616 48.6612 15.35 48.6962 14.548 47.9392C13.744 47.1802 13.707 45.9152 14.465 45.1122C27.4 31.3992 44.902 23.8472 63.746 23.8472C82.585 23.8472 100.725 31.7852 113.516 45.6272C114.266 46.4392 114.216 47.7042 113.405 48.4542C113.02 48.8082 112.533 48.9842 112.047 48.9842Z" fill="white"/>
<path d="M63.9688 103.207C59.3618 103.207 55.6138 99.4571 55.6138 94.8481C55.6138 90.2431 59.3618 86.4951 63.9688 86.4951C68.5758 86.4951 72.3238 90.2421 72.3238 94.8481C72.3238 99.4571 68.5758 103.207 63.9688 103.207ZM63.9688 90.4951C61.5678 90.4951 59.6138 92.4481 59.6138 94.8481C59.6138 97.2521 61.5678 99.2071 63.9688 99.2071C66.3698 99.2071 68.3238 97.2521 68.3238 94.8481C68.3238 92.4481 66.3698 90.4951 63.9688 90.4951Z" fill="white"/>
</svg>
