<?xml version="1.0" encoding="utf-8"?><svg xml:space="preserve" viewBox="0 0 100 100" y="0px" x="0px" xmlns:xlink="http://www.w3.org/1999/xlink" xmlns="http://www.w3.org/2000/svg" id="圖層_1" version="1.1" width="200px" height="200px" style="width:100%;height:100%;background-color:rgb(255, 255, 255);animation-play-state:paused" ><g class="ldl-scale" style="transform-origin:50% 50% 0px;transform:rotate(0deg) scale(0.8);animation-play-state:paused" ><path d="M22.22,7.43c-0.39,4.19-0.78,8.38-1.17,12.58l2.25,3.9l30.17,52.26l12.49-7.21L35.8,16.69l-2.25-3.9C29.77,11,26,9.22,22.22,7.43z" stroke-miterlimit="10" stroke-linejoin="round" stroke-linecap="round" stroke-width="3.5" stroke="#000000" fill="#F2F2F3" style="fill:rgb(242, 242, 243);animation-play-state:paused" ></path>
<path d="M22.24,7.42c-0.83,4.45-1.67,8.9-2.5,13.35l2.25,3.9l30.17,52.26l15.13-8.74L37.12,15.93l-2.25-3.9 C30.66,10.49,26.45,8.96,22.24,7.42z" stroke-miterlimit="10" stroke-linejoin="round" stroke-linecap="round" stroke-width="3.5" stroke="#000000" fill="#F2F2F3" style="fill:rgb(242, 242, 243);animation-play-state:paused" ></path>
<path d="M72.9,88.85l-5.64,3.26c-1.67,0.97-3.81,0.39-4.78-1.28l-8.85-15.32l11.71-6.76l8.85,15.32C75.14,85.75,74.57,87.89,72.9,88.85z" stroke-miterlimit="10" stroke-linejoin="round" stroke-linecap="round" stroke-width="3.5" stroke="#000000" fill="#984F48" style="fill:rgb(152, 79, 72);animation-play-state:paused" ></path>
<path d="M76.44,63.16L43.23,82.33c-3.65,2.11-8.33,0.86-10.44-2.8l-1.72-2.98l46.45-26.82l1.72,2.98C81.35,56.38,80.1,61.05,76.44,63.16z" stroke-miterlimit="10" stroke-linejoin="round" stroke-linecap="round" stroke-width="3.5" stroke="#000000" fill="#77A4BD" style="fill:rgb(119, 164, 189);animation-play-state:paused" ></path>
<line y2="55.28" x2="49.9" y1="19.3" x1="29.13" stroke-miterlimit="10" stroke-linejoin="round" stroke-linecap="round" stroke-width="3.5" stroke="#000000" fill="none" style="animation-play-state:paused" ></line>
<line y2="78.36" x2="62.75" y1="81.6" x1="57.14" stroke-miterlimit="10" stroke-linejoin="round" stroke-linecap="round" stroke-width="3.5" stroke="#000000" fill="none" style="animation-play-state:paused" ></line>
<line y2="84.22" x2="66.13" y1="87.45" x1="60.52" stroke-miterlimit="10" stroke-linejoin="round" stroke-linecap="round" stroke-width="3.5" stroke="#000000" fill="none" style="animation-play-state:paused" ></line>
<metadata xmlns:d="https://loading.io/stock/" style="animation-play-state:paused" ><d:name style="animation-play-state:paused" >toy</d:name>


<d:tags style="animation-play-state:paused" >toy,sword,knight,weapon,fight</d:tags>


<d:license style="animation-play-state:paused" >by</d:license>


<d:slug style="animation-play-state:paused" >jsrn02</d:slug></metadata></g><!-- generated by https://loading.io/ --></svg>