<?xml version="1.0" ?><svg enable-background="new 0 0 24 24" id="Layer_1" version="1.1" viewBox="0 0 24 24" xml:space="preserve" xmlns="http://www.w3.org/2000/svg" xmlns:xlink="http://www.w3.org/1999/xlink"><path d="M20.8535156,4.1464844L18.854126,2.1470947C18.7636108,2.0562744,18.6384888,2,18.5,2H14V1.5  C14,0.6728516,13.3271484,0,12.5,0h-1C10.6728516,0,10,0.6728516,10,1.5V2H5.5C5.3615112,2,5.2363892,2.0562744,5.145874,2.1470947  L3.1464844,4.1464844C3.0527344,4.2402344,3,4.3671875,3,4.5v6c0,0.1328125,0.0527344,0.2597656,0.1464844,0.3535156  l1.9993896,1.9993896C5.2363892,12.9437256,5.3615112,13,5.5,13H10v9.5c0,0.8271484,0.6728516,1.5,1.5,1.5h1  c0.8271484,0,1.5-0.6728516,1.5-1.5V13h4.5c0.1384888,0,0.2636108-0.0562744,0.354126-0.1470947l1.9993896-1.9993896  C20.9472656,10.7597656,21,10.6328125,21,10.5v-6C21,4.3671875,20.9472656,4.2402344,20.8535156,4.1464844z M12.2773438,21.9160156  C12.1933594,21.972168,12.0966797,22,12,22s-0.1933594-0.027832-0.2773438-0.0839844L11,21.4342041v-1.2017822l1,0.6665039  l1-0.6665039v1.2017822L12.2773438,21.9160156z M12.2773438,18.9160156C12.1933594,18.972168,12.0966797,19,12,19  s-0.1933594-0.027832-0.2773438-0.0839844L11,18.4342041v-1.2017822l1,0.6665039l1-0.6665039v1.2017822L12.2773438,18.9160156z   M12.2773438,15.9160156C12.1933594,15.972168,12.0966797,16,12,16s-0.1933594-0.027832-0.2773438-0.0839844L11,15.4342041  v-1.2017822l1,0.6665039l1-0.6665039v1.2017822L12.2773438,15.9160156z" fill="#303C42"/><g/><g/><g/><g/><g/><g/><g/><g/><g/><g/><g/><g/><g/><g/><g/></svg>