<svg width="128" height="128" xmlns="http://www.w3.org/2000/svg">

 <g>
  <title>background</title>
  <rect fill="none" id="canvas_background" height="402" width="582" y="-1" x="-1"/>
 </g>
 <g>
  <title>Layer 1</title>
  <path id="svg_1" fill="#f9f9f9" d="m123.315,16l-11.312,-11.314c-3.125,-3.123 -7.223,-4.686 -11.316,-4.686s-8.188,1.563 -11.313,4.686l-68.69,68.689c-3.121,3.125 -12.68,15.211 -12.684,19.305l-8,35.32l35.313,-8c0,0 16.188,-9.563 19.313,-12.688l68.69,-68.687c6.246,-6.25 6.246,-16.382 -0.001,-22.625zm-112.71,101.398l5.195,-22.953c0.074,-0.328 0.129,-0.664 0.16,-0.992c0.016,-0.047 0.059,-0.117 0.078,-0.164l18.09,18.094c-0.605,0.367 -1.215,0.734 -1.813,1.094l-21.71,4.921zm38.379,-15.757c-0.906,0.859 -4.039,2.977 -7.867,5.414l-20.726,-20.727c2.125,-2.914 4.492,-5.844 5.949,-7.297l51.722,-51.718l22.625,22.625l-51.703,51.703zm68.675,-68.672l-11.316,11.313l-22.625,-22.625l11.316,-11.313c1.508,-1.515 3.516,-2.344 5.653,-2.344s4.148,0.836 5.66,2.344l11.313,11.313c1.512,1.508 2.34,3.516 2.34,5.656c-0.001,2.133 -0.833,4.148 -2.341,5.656z"/>
 </g>
</svg>