<svg width="32" height="32" xmlns="http://www.w3.org/2000/svg">

 <g>
  <title>background</title>
  <rect fill="none" id="canvas_background" height="402" width="582" y="-1" x="-1"/>
 </g>
 <g>
  <title>Layer 1</title>
  <ellipse ry="15.88719" rx="15.953525" id="svg_8" cy="16.924266" cx="15.86733" stroke-opacity="null" stroke-width="null" stroke="null" fill="#201f22"/>
  <path id="svg_1" fill-rule="evenodd" fill="#ffffff" d="m15.803989,-0.066332c-8.90626,0 -16.127661,7.420836 -16.127661,16.575133c0,7.322401 4.620003,13.535099 11.030735,15.727573c0.806635,0.151272 1.060725,-0.339857 1.060725,-0.779181c0,-0.393732 0.008066,-1.494114 0,-2.877361c-4.485899,1.001949 -5.415546,-2.183146 -5.415546,-2.183146c-0.73303,-1.914789 -1.789722,-2.424568 -1.789722,-2.424568c-1.464043,-1.027851 0.109904,-1.008165 0.109904,-1.008165c1.618312,0.117085 2.471329,1.708595 2.471329,1.708595c1.438835,2.53129 3.774043,1.799776 4.692599,1.377029c0.147211,-1.071367 0.564645,-1.801846 1.025435,-2.216303c-3.58146,-0.4186 -7.34643,-1.840183 -7.34643,-8.191723c0,-1.810136 0.628167,-3.288709 1.659652,-4.447113c-0.166368,-0.418601 -0.72093,-2.104401 0.158302,-4.387018c0,0 1.354138,-0.445539 4.434476,1.700305c1.286583,-0.367828 2.666938,-0.551226 4.038216,-0.557442c1.370271,0.006217 2.749618,0.189614 4.038217,0.557442c3.080339,-2.144809 4.432461,-1.700305 4.432461,-1.700305c0.879232,2.282617 0.325678,3.968417 0.160318,4.387018c1.031485,1.158404 1.657635,2.636977 1.657635,4.447113c0,6.368116 -3.771019,7.768978 -7.364578,8.178251c0.57876,0.512892 1.104082,1.507586 1.104082,3.053507c0,2.072281 0,4.04302 0,4.588028c0,0.44347 0.260139,0.933563 1.078875,0.772964c6.404682,-2.195583 11.020649,-8.40517 11.020649,-15.725502c0,-9.154296 -7.221399,-16.575133 -16.129673,-16.575133z" clip-rule="evenodd"/>
 </g>
</svg>