<?xml version="1.0" encoding="iso-8859-1"?>
<!-- Generator: Adobe Illustrator 21.0.0, SVG Export Plug-In . SVG Version: 6.00 Build 0)  -->
<svg version="1.1" id="Capa_1" xmlns="http://www.w3.org/2000/svg" xmlns:xlink="http://www.w3.org/1999/xlink" x="0px" y="0px"
	 viewBox="0 0 617.43 617.43" style="enable-background:new 0 0 617.43 617.43;" xml:space="preserve">
<g>
	<g>
		<g id="filled_outline_11_">
			<path style="fill:#F09E26;" d="M502.951,82.372H114.247c-27.079,23.23-49.795,51.112-67.076,82.34h522.856
				C552.757,133.484,530.041,105.602,502.951,82.372z"/>
			<path style="fill:#FABC5F;" d="M30.981,233.28c27.079-4.508,54.704-4.508,81.784,0l41.726,6.958
				c27.079,4.508,54.704,4.508,81.784,0L278,233.28c27.079-4.508,54.704-4.508,81.784,0l41.726,6.958
				c27.079,4.508,54.704,4.508,81.784,0l41.726-6.958c23.724-3.952,47.901-4.446,71.769-1.462h0.226
				c-6.217-23.384-15.284-45.925-26.987-67.107H47.171c-12.299,22.232-21.676,45.945-27.923,70.575l1.163-0.247L30.981,233.28z"/>
			<path style="fill:#E38800;" d="M308.599,10.325c-71.327-0.082-140.317,25.484-194.352,72.047h388.704
				C448.916,35.809,379.936,10.232,308.599,10.325z"/>
			<path style="fill:#FABC5F;" d="M338.931,370.746L338.931,370.746c40.439-13.483,84.161-13.483,124.6,0l0,0
				c20.091,6.69,41.129,10.107,62.3,10.107h72.438c5.856-23.57,8.81-47.767,8.81-72.047H10.118c0,24.28,2.954,48.477,8.81,72.047
				h257.702C297.813,380.843,318.851,377.436,338.931,370.746z"/>
			<path style="fill:#F09E26;" d="M525.832,380.853c-21.172,0-42.209-3.417-62.3-10.107l0,0c-40.439-13.483-84.161-13.483-124.6,0
				l0,0c-20.091,6.69-41.129,10.107-62.3,10.107H18.929c12.495,50.248,37.886,96.358,73.642,133.802h184.06
				c21.172,0,42.209,3.417,62.3,10.107l0,0c40.439,13.483,84.161,13.483,124.6,0l0,0c19.689-6.546,40.295-9.932,61.044-10.056
				c35.787-37.454,61.189-83.585,73.694-133.853C598.27,380.853,525.832,380.853,525.832,380.853z"/>
			<path style="fill:#FABC5F;" d="M463.531,524.762c-40.439,13.483-84.161,13.483-124.6,0l0,0
				c-20.091-6.69-41.129-10.107-62.3-10.107H92.571c113.536,119.31,302.299,123.983,421.609,10.447
				c3.551-3.376,7.019-6.844,10.395-10.395C503.826,514.819,483.231,518.216,463.531,524.762z"/>
			<path style="fill:#F09E26;" d="M597.014,231.86h-0.226c-23.868-2.985-48.045-2.491-71.769,1.462l-41.726,6.958
				c-27.079,4.508-54.704,4.508-81.784,0l-41.726-6.958c-27.079-4.508-54.704-4.508-81.784,0l-41.726,6.958
				c-27.079,4.508-54.704,4.508-81.784,0l-41.726-6.958c-27.079-4.508-54.704-4.508-81.784,0l-10.57,1.719l-1.142,0.247
				c-6.083,24.033-9.16,48.724-9.15,73.519H607.08C607.09,282.828,603.704,256.953,597.014,231.86z"/>
			<path style="fill:#E6941E;" d="M493.801,74.828c0,0.803,0.062,1.595,0.062,2.398c-0.021,225.199-163.732,416.978-386.131,452.353
				c121.523,111.385,310.327,103.171,421.712-18.341S632.616,200.91,511.103,89.525C505.525,84.4,499.761,79.5,493.801,74.828z"/>
			<path d="M308.599,0.033C198.357,0.115,96.503,58.957,41.366,154.419h-0.371v0.648C-43.845,302.919,7.237,491.558,155.087,576.399
				s336.491,33.769,421.342-114.092s33.759-336.491-114.092-421.331C415.548,14.123,362.542,0.012,308.599,0.033z M308.599,20.617
				c58.677-0.051,115.944,17.909,164.082,51.462H144.517C192.655,38.526,249.932,20.566,308.599,20.617z M308.599,596.994
				c-70.112,0.041-137.816-25.587-190.318-72.047h158.349c20.07-0.01,40.007,3.232,59.048,9.582c42.57,14.09,88.536,14.09,131.105,0
				c9.582-3.191,19.412-5.599,29.385-7.205C444.038,572.303,377.466,597.035,308.599,596.994z M519.8,504.599
				c-20.245,0.535-40.305,4.045-59.531,10.406c-38.339,12.691-79.736,12.691-118.075,0c-21.141-7.05-43.28-10.653-65.563-10.642
				H97.162c-11.785-12.742-22.396-26.524-31.721-41.17h212.282c16.108,0.329,31.814-5.043,44.34-15.171l12.485-9.634
				c18.166-11.528,39.42-17.23,60.921-16.365c38.638,0,67.518,15.696,67.518,29.735c0,3.366-4.354,8.8-14.07,13.38
				c-28.037,13.154-62.444,9.953-73.807,1.976c-1.05-0.679-1.945-1.564-2.635-2.604c10.406-6.381,23.261-7.277,34.449-2.388
				l9.201-18.423c-16.447-7.513-35.457-6.989-51.462,1.441c-6.886,2.923-11.775,9.201-12.917,16.591
				c-0.576,8.985,3.87,17.549,11.548,22.242c13.02,7.678,27.995,11.383,43.084,10.663c17.672,0.072,35.149-3.623,51.277-10.859
				c16.468-7.73,25.916-19.401,25.916-31.999c0-28.726-37.876-50.34-88.103-50.34c-26.05-0.957-51.75,6.268-73.488,20.647
				l-12.495,9.644c-8.913,7.359-20.204,11.229-31.762,10.879H53.47c-8.656-16.437-15.686-33.667-21.007-51.462h244.168
				c22.283,0.01,44.422-3.592,65.563-10.642c38.339-12.691,79.736-12.691,118.075,0c21.141,7.05,43.28,10.653,65.563,10.642h58.904
				C572.076,433.437,549.854,472.25,519.8,504.599z M590.056,370.56h-64.225c-20.07,0.01-40.007-3.232-59.048-9.582
				c-42.57-14.101-88.536-14.09-131.105,0c-19.041,6.35-38.977,9.593-59.048,9.582H27.142c-3.705-16.921-5.867-34.15-6.474-51.462
				H596.53C595.933,336.41,593.762,353.629,590.056,370.56z M596.53,298.513H20.668c0.638-18.269,3.026-36.446,7.122-54.262
				l4.879-0.823c25.958-4.323,52.45-4.323,78.408,0l41.726,6.958c28.191,4.724,56.969,4.724,85.16,0l41.726-6.958
				c25.958-4.323,52.45-4.323,78.408,0l41.726,6.958c28.191,4.704,56.969,4.704,85.16,0l41.726-6.958
				c20.513-3.366,41.376-4.035,62.053-1.986C593.257,260.153,595.861,279.277,596.53,298.513z M582.811,220.291
				c-19.875-1.328-39.832-0.36-59.48,2.872l-41.726,6.958c-25.958,4.323-52.45,4.323-78.408,0l-41.726-6.958
				c-28.191-4.724-56.969-4.724-85.16,0l-41.726,6.958c-25.958,4.323-52.45,4.323-78.408,0l-41.726-6.958
				c-26.76-4.426-54.046-4.611-80.857-0.535c5.177-16.437,11.826-32.38,19.875-47.623h510.258
				C571.376,189.516,577.757,204.677,582.811,220.291z M65.44,154.419c14.626-22.962,32.421-43.753,52.841-61.755h380.635
				c20.42,18.001,38.216,38.792,52.841,61.755H65.44z"/>
		</g>
	</g>
</g>
<g>
</g>
<g>
</g>
<g>
</g>
<g>
</g>
<g>
</g>
<g>
</g>
<g>
</g>
<g>
</g>
<g>
</g>
<g>
</g>
<g>
</g>
<g>
</g>
<g>
</g>
<g>
</g>
<g>
</g>
</svg>
