<?xml version="1.0" encoding="iso-8859-1"?>
<!-- Generator: Adobe Illustrator 21.0.0, SVG Export Plug-In . SVG Version: 6.00 Build 0)  -->
<svg version="1.1" id="Capa_1" xmlns="http://www.w3.org/2000/svg" xmlns:xlink="http://www.w3.org/1999/xlink" x="0px" y="0px"
	 viewBox="0 0 617.594 617.594" style="enable-background:new 0 0 617.594 617.594;" xml:space="preserve">
<g>
	<g>
		<g id="filled_outline_16_">
			<circle style="fill:#F04729;" cx="308.797" cy="308.797" r="298.481"/>
			<path style="fill:#DD381A;" d="M493.999,74.819c0,0.803,0.062,1.595,0.062,2.398C494.04,302.416,330.339,494.195,107.93,529.57
				c121.523,111.395,310.327,103.182,421.723-18.341s103.171-310.327-18.341-421.712C505.722,84.401,499.948,79.502,493.999,74.819z
				"/>
			<path style="fill:#C43117;" d="M407.862,463.184c-34.109,0-61.755-27.646-61.755-61.755s27.646-61.755,61.755-61.755
				s61.755,27.646,61.755,61.755C469.586,435.528,441.961,463.153,407.862,463.184z M407.862,360.259
				c-22.736,0-41.17,18.434-41.17,41.17c0,22.736,18.434,41.17,41.17,41.17c22.736,0,41.17-18.434,41.17-41.17
				C449.032,378.693,430.598,360.259,407.862,360.259z"/>
			<path style="fill:#C43117;" d="M205.873,216.165c-22.736,0-41.17-18.434-41.17-41.17s18.434-41.17,41.17-41.17
				s41.17,18.434,41.17,41.17S228.609,216.165,205.873,216.165z M205.873,154.411c-11.373,0-20.585,9.212-20.585,20.585
				c0,11.373,9.212,20.585,20.585,20.585s20.585-9.212,20.585-20.585C226.458,163.622,217.246,154.411,205.873,154.411z"/>
			<path d="M308.797,20.609c85.119-0.01,165.863,37.681,220.516,102.924H365.405c-22.088-0.031-43.877-5.167-63.648-15.027
				l-17.888-8.944c-45.956-22.51-99.734-22.51-145.69,0l-17.909,8.944c-8.666,4.199-17.775,7.369-27.172,9.469
				C147.689,56.066,226.252,20.598,308.797,20.609z M294.151,596.615c-9.397-0.473-18.671-1.42-27.79-2.779
				c-17.26-5.084-29.611-15.665-29.611-27.728c0-16.736,23.57-30.877,51.462-30.877c27.892,0,51.462,14.142,51.462,30.877
				C339.674,581.629,319.336,594.762,294.151,596.615z M348.907,594.135c7.153-7.596,11.198-17.59,11.353-28.026
				c0-28.819-31.649-51.462-72.047-51.462s-72.047,22.643-72.047,51.462c0.031,5.826,1.348,11.579,3.87,16.828
				c-71.594-23.364-131.27-73.704-166.367-140.337h207.403c28.253,0.535,55.168,12.176,74.908,32.401
				c39.935,39.142,103.83,39.142,143.765,0c19.741-20.214,46.656-31.855,74.908-32.401h9.263
				c-43.167,82.103-123.149,138.475-214.978,151.536H348.907z M582.247,399.607c-0.432,1.276-0.854,2.553-1.297,3.818
				c-2.141,6.175-4.446,12.227-7.009,18.238l-0.154,0.35h-19.134c-33.646,0.525-65.728,14.276-89.318,38.278
				c-31.917,31.31-83.029,31.31-114.946,0c-23.59-24.002-55.672-37.753-89.318-38.278H43.808l-0.154-0.36
				c-2.563-6.001-4.868-12.094-7.009-18.228c-0.443-1.266-0.865-2.542-1.297-3.818c-2.058-6.175-3.983-12.454-5.62-18.763h231.343
				c33.646-0.525,65.728-14.276,89.318-38.278c31.917-31.31,83.029-31.31,114.946,0c23.59,24.002,55.672,37.753,89.318,38.278
				h33.214C586.23,387.154,584.315,393.401,582.247,399.607z M596.985,308.797c-0.021,17.26-1.595,34.48-4.693,51.462h-37.639
				c-28.253-0.546-55.168-12.186-74.908-32.401c-39.935-39.142-103.83-39.142-143.765,0c-19.741,20.225-46.656,31.865-74.908,32.401
				H25.302c-3.098-16.983-4.673-34.202-4.693-51.462c0-6.927,0.329-13.782,0.813-20.585h159.749
				c44.988-0.062,88.628-15.367,123.797-43.424c31.495-25.134,70.575-38.854,110.87-38.916h2.059
				c40.316,0.051,79.417,13.771,110.932,38.916c19.833,15.696,42.467,27.481,66.705,34.716
				C596.512,289.242,596.996,299.019,596.985,308.797z M592.23,256.995c-18.279-6.618-35.365-16.169-50.567-28.284
				c-35.159-28.047-78.789-43.352-123.767-43.424h-2.059c-44.988,0.062-88.628,15.367-123.797,43.424
				c-31.495,25.134-70.575,38.854-110.87,38.916H23.593c6.515-45.276,23.776-88.33,50.34-125.568
				c19.247-1.884,38.041-7.019,55.579-15.181l17.909-8.944c40.151-19.659,87.136-19.659,127.287,0l17.888,8.944
				c22.612,11.291,47.53,17.188,72.809,17.24h179.685C568.743,177.918,584.83,216.423,592.23,256.995z M308.797,0.024
				C198.555,0.106,96.701,58.948,41.564,154.411h-0.371v0.648c-77.883,135.13-42.518,307.137,82.34,400.592v0.165h0.216
				c109.625,82.34,260.471,82.34,370.096,0h0.216v-0.165c136.395-102.255,164.072-295.712,61.827-432.108
				C497.571,45.753,406.019-0.007,308.797,0.024z"/>
			<path d="M407.862,339.675c-34.109,0-61.755,27.646-61.755,61.755s27.646,61.755,61.755,61.755s61.755-27.646,61.755-61.755
				C469.586,367.341,441.961,339.716,407.862,339.675z M407.862,442.599c-22.736,0-41.17-18.434-41.17-41.17
				c0-22.736,18.434-41.17,41.17-41.17c22.736,0,41.17,18.434,41.17,41.17C449.032,424.165,430.598,442.599,407.862,442.599z"/>
			<path d="M205.873,133.826c-22.736,0-41.17,18.434-41.17,41.17s18.434,41.17,41.17,41.17s41.17-18.434,41.17-41.17
				S228.609,133.826,205.873,133.826z M205.873,195.58c-11.373,0-20.585-9.212-20.585-20.585c0-11.373,9.212-20.585,20.585-20.585
				s20.585,9.212,20.585,20.585C226.458,186.369,217.246,195.58,205.873,195.58z"/>
		</g>
	</g>
</g>
<g>
</g>
<g>
</g>
<g>
</g>
<g>
</g>
<g>
</g>
<g>
</g>
<g>
</g>
<g>
</g>
<g>
</g>
<g>
</g>
<g>
</g>
<g>
</g>
<g>
</g>
<g>
</g>
<g>
</g>
</svg>
