<?xml version="1.0" encoding="iso-8859-1"?>
<!-- Generator: Adobe Illustrator 21.0.0, SVG Export Plug-In . SVG Version: 6.00 Build 0)  -->
<svg version="1.1" id="Capa_1" xmlns="http://www.w3.org/2000/svg" xmlns:xlink="http://www.w3.org/1999/xlink" x="0px" y="0px"
	 viewBox="0 0 617.774 617.774" style="enable-background:new 0 0 617.774 617.774;" xml:space="preserve">
<g>
	<g>
		<g id="filled_outline_21_">
			<circle style="fill:#2A90DE;" cx="308.78" cy="308.859" r="298.481"/>
			<path style="fill:#2683C9;" d="M493.983,74.881c0,0.803,0.062,1.595,0.062,2.398c-0.021,225.199-163.732,416.978-386.131,452.353
				c121.523,111.385,310.327,103.171,421.712-18.341s103.171-310.327-18.341-421.712C505.706,84.463,499.932,79.564,493.983,74.881z
				"/>
			<ellipse style="fill:#2379BA;" cx="195.564" cy="401.491" rx="72.047" ry="51.462"/>
			<path d="M308.78,0.086C166.312,0.292,42.422,97.782,8.725,236.195H8.488l0.103,0.545
				c-18.104,74.991-7.369,154.047,30.075,221.493v0.093h0.093c82.545,149.22,270.434,203.266,419.654,120.72
				s203.265-270.434,120.72-419.654C524.726,61.048,421.174,0.034,308.78,0.086z M308.78,20.671
				c67.014-0.062,131.939,23.343,183.504,66.139c-49.97-5.229-100.444-2.625-149.601,7.73c-63.072,13.36-128.244,13.36-191.316,0
				c-9.613-2.058-19.36-3.654-29.128-5.095C174.227,45.023,240.387,20.63,308.78,20.671z M308.78,597.048
				c-45.009,0.031-89.39-10.55-129.541-30.877h259.081C398.16,586.498,353.789,597.078,308.78,597.048z M472.863,545.585H144.698
				c-29.488-20.482-54.91-46.244-75.001-75.999c7.75,3.623,15.233,7.802,22.376,12.516c31.876,21.295,69.361,32.648,107.69,32.606
				h1.894c38.525,0,76.174-11.466,108.153-32.936c28.201-18.835,61.312-28.973,95.226-29.148l153.769-0.782
				C537.437,489.059,508.083,521.079,472.863,545.585z M569.612,431.205l-164.679,0.834c-38.144,0.226-75.372,11.682-107.041,32.936
				c-28.479,19.031-61.981,29.179-96.234,29.148h-1.894c-34.264,0.031-67.776-10.107-96.265-29.148
				c-15.634-10.364-32.689-18.403-50.639-23.858c-11.991-23.055-20.78-47.644-26.122-73.076
				c27.44-4.415,53.613-14.667,76.761-30.044c28.489-19.031,62.002-29.179,96.265-29.138h1.894
				c34.459,0,68.146,10.262,96.749,29.478c31.546,21.079,68.599,32.421,106.537,32.606l184.986,0.937
				c-4.57,20.461-11.373,40.357-20.297,59.326C569.632,431.206,569.612,431.206,569.612,431.205z M596.969,308.859
				c0,14.204-1.06,28.397-3.149,42.446l-188.743-0.947c-34.109-0.206-67.405-10.457-95.72-29.478
				c-31.876-21.295-69.361-32.648-107.7-32.606h-1.894c-38.329-0.041-75.814,11.311-107.69,32.606
				c-20.739,13.782-44.196,22.952-68.784,26.884c-4.323-31.166-3.448-62.835,2.594-93.723l98.807-17.652
				c73.766-13.246,149.436-11.476,222.502,5.208c76.349,17.446,155.447,19.175,232.486,5.074l10.015-1.822
				C594.499,265.847,596.948,287.317,596.969,308.859z M576.013,226.417c-74.301,13.607-150.599,11.939-224.241-4.889
				c-75.752-17.302-154.212-19.144-230.685-5.393l-90.069,16.077c13.01-46.934,37.701-89.812,71.769-124.621
				c14.821,1.657,29.725,4.024,44.34,7.091c32.843,6.947,66.325,10.447,99.898,10.467c33.574-0.021,67.055-3.52,99.898-10.467
				c56.3-11.867,114.318-13.123,171.081-3.695c30.651,32.318,53.397,71.306,66.448,113.896L576.013,226.417z"/>
			<path d="M195.564,339.737c-45.4,0-82.34,27.697-82.34,61.755s36.94,61.755,82.34,61.755s82.34-27.697,82.34-61.755
				S240.964,339.737,195.564,339.737z M195.564,442.661c-33.471,0-61.755-18.856-61.755-41.17c0-22.314,28.284-41.17,61.755-41.17
				s61.755,18.856,61.755,41.17C257.318,423.805,229.035,442.661,195.564,442.661z"/>
		</g>
	</g>
</g>
<g>
</g>
<g>
</g>
<g>
</g>
<g>
</g>
<g>
</g>
<g>
</g>
<g>
</g>
<g>
</g>
<g>
</g>
<g>
</g>
<g>
</g>
<g>
</g>
<g>
</g>
<g>
</g>
<g>
</g>
</svg>
