<svg width="116" height="82" viewBox="0 0 116 82" fill="none" xmlns="http://www.w3.org/2000/svg">
<path d="M115.98 0H0V81.2797H115.98V0Z" fill="url(#paint0_linear)"/>
<path fill-rule="evenodd" clip-rule="evenodd" d="M116 55.7915C114.068 55.7915 105.032 58.2529 98.0262 56.612C92.2106 55.2446 88.288 49.7384 86.2584 49.7384C82.5505 49.7384 78.6669 55.7915 74.4711 55.7915C70.607 55.7915 65.2012 48.6809 61.0249 48.6809C55.2678 48.6809 50.6231 55.7915 44.5929 55.7915C40.2409 55.7915 38.1137 47.9334 33.7813 47.9334C29.5855 47.9334 23.1844 55.7915 19.1252 55.7915C15.3977 55.7915 12.3143 47.2588 8.78196 47.2588C5.95222 47.2588 2.6541 55.7915 0 55.7915V70.0127H116C116 65.2723 116 60.5319 116 55.7915Z" fill="#BCE2F9"/>
<path fill-rule="evenodd" clip-rule="evenodd" d="M0 57.7599C4.1568 57.7599 9.05518 50.631 14.3439 50.631C18.7153 50.631 23.3015 57.7599 28.2194 57.7599C32.8055 57.7599 37.3917 52.9101 42.29 52.9101C49.1009 52.9101 56.3412 57.7599 63.4448 57.7599C68.5579 57.7599 71.0754 48.4979 76.1884 48.4979C81.1258 48.4979 88.6588 57.7599 93.4596 57.7599C97.8506 57.7599 101.48 47.7139 105.637 47.7139C108.974 47.7139 112.878 57.7599 115.98 57.7599V74.5154H0C0 68.9363 0 63.3572 0 57.7599Z" fill="#B2885E"/>
<path fill-rule="evenodd" clip-rule="evenodd" d="M115.98 63.2295V74.5153H0V63.2295C3.12248 63.2295 7.29879 55.8271 10.6359 55.8271C14.7927 55.8271 18.1494 63.2295 22.5404 63.2295C27.3217 63.2295 33.4495 58.1244 38.3869 58.1244C43.5 58.1244 47.4226 63.2295 52.5552 63.2295C59.6588 63.2295 66.8991 58.3797 73.6904 58.3797C78.6083 58.3797 83.1945 63.2295 87.7611 63.2295C92.679 63.2295 97.2847 56.0824 101.637 56.0824C106.925 56.0824 111.843 63.2295 115.98 63.2295Z" fill="#A1774D"/>
<path fill-rule="evenodd" clip-rule="evenodd" d="M54.1164 68.7906L45.1783 52.3086L34.113 67.1497L54.1164 68.7906Z" fill="#D99527"/>
<path fill-rule="evenodd" clip-rule="evenodd" d="M54.0969 68.7724L45.1783 52.3086L63.7375 63.4121L54.0969 68.7724Z" fill="#DD9F42"/>
<path fill-rule="evenodd" clip-rule="evenodd" d="M89.8298 63.6679L97.3432 50.8506L106.613 64.0873L89.8298 63.6679Z" fill="#D99527"/>
<path fill-rule="evenodd" clip-rule="evenodd" d="M89.8297 63.6497L97.3432 50.8506L81.7113 59.4745L89.8297 63.6497Z" fill="#DD9F42"/>
<path fill-rule="evenodd" clip-rule="evenodd" d="M116 77.4513H0V63.2848C6.47914 63.2848 12.8412 59.1278 18.8715 59.6384C30.893 60.6411 42.1534 66.4755 54.4872 65.0169C63.6985 63.9229 74.5296 55.8643 84.1898 55.8643C93.7719 55.8643 106.398 63.2848 116 63.2848V77.4513Z" fill="#DD9F42"/>
<path fill-rule="evenodd" clip-rule="evenodd" d="M116 77.4514H0V69.9761C6.47914 69.9761 12.4704 73.7685 18.5007 74.279C30.5027 75.2635 39.8896 69.9944 52.2234 68.5358C61.4347 67.4418 74.1588 66.8037 83.7995 66.8037C93.4011 66.8037 106.398 69.9761 115.98 69.9761L116 77.4514Z" fill="#D99527"/>
<path fill-rule="evenodd" clip-rule="evenodd" d="M0 63.9776V63.2848C6.47914 63.2848 12.8412 59.1278 18.8715 59.6384C30.893 60.6411 42.1534 66.4755 54.4872 65.0169C63.6985 63.9229 74.5296 55.8643 84.1898 55.8643C93.7719 55.8643 106.398 63.2848 116 63.2848V63.9776C106.398 63.9776 93.7719 56.5753 84.1898 56.5753C74.5296 56.5753 63.6985 64.6158 54.4872 65.7097C42.1534 67.1683 30.893 61.334 18.8715 60.3312C12.8412 59.8389 6.47914 63.9776 0 63.9776Z" fill="#E7C390"/>
<path d="M97.675 63.5033C98.7743 63.5033 99.6655 63.0869 99.6655 62.5734C99.6655 62.0599 98.7743 61.6436 97.675 61.6436C96.5756 61.6436 95.6844 62.0599 95.6844 62.5734C95.6844 63.0869 96.5756 63.5033 97.675 63.5033Z" fill="#BF8720"/>
<path d="M79.8769 61.2788C80.7392 61.2788 81.4382 61.0258 81.4382 60.7136C81.4382 60.4015 80.7392 60.1484 79.8769 60.1484C79.0147 60.1484 78.3157 60.4015 78.3157 60.7136C78.3157 61.0258 79.0147 61.2788 79.8769 61.2788Z" fill="#E7C390"/>
<path d="M73.8856 69.9399C74.4568 69.9399 74.9199 69.7603 74.9199 69.5388C74.9199 69.3173 74.4568 69.1377 73.8856 69.1377C73.3143 69.1377 72.8513 69.3173 72.8513 69.5388C72.8513 69.7603 73.3143 69.9399 73.8856 69.9399Z" fill="#BF8720"/>
<path d="M38.9724 68.5177C39.5437 68.5177 40.0068 68.3218 40.0068 68.0802C40.0068 67.8385 39.5437 67.6426 38.9724 67.6426C38.4012 67.6426 37.9381 67.8385 37.9381 68.0802C37.9381 68.3218 38.4012 68.5177 38.9724 68.5177Z" fill="#BF8720"/>
<path d="M45.3735 73.7321C45.6861 73.7321 45.9395 73.6913 45.9395 73.641C45.9395 73.5906 45.6861 73.5498 45.3735 73.5498C45.0609 73.5498 44.8076 73.5906 44.8076 73.641C44.8076 73.6913 45.0609 73.7321 45.3735 73.7321Z" fill="#E7C390"/>
<path d="M12.6265 65.6182C13.0469 65.6182 13.3876 65.5203 13.3876 65.3995C13.3876 65.2786 13.0469 65.1807 12.6265 65.1807C12.2062 65.1807 11.8654 65.2786 11.8654 65.3995C11.8654 65.5203 12.2062 65.6182 12.6265 65.6182Z" fill="#E7C390"/>
<path d="M8.99663 70.6502C9.54632 70.6502 9.99192 70.4135 9.99192 70.1215C9.99192 69.8295 9.54632 69.5928 8.99663 69.5928C8.44695 69.5928 8.00134 69.8295 8.00134 70.1215C8.00134 70.4135 8.44695 70.6502 8.99663 70.6502Z" fill="#BF8720"/>
<path fill-rule="evenodd" clip-rule="evenodd" d="M0 11.5412C54.7019 0.255398 87.7026 19.4723 115.98 11.5412V8.55111C74.1198 16.4822 40.924 -2.75294 0 8.55111V11.5412Z" fill="#D9ECFF"/>
<path fill-rule="evenodd" clip-rule="evenodd" d="M116 20.967C61.2786 13.8929 28.2779 25.9444 0 20.967V19.0891C41.8802 24.0665 75.0565 12.0149 116 19.0891V20.967Z" fill="#D9ECFF"/>
<path fill-rule="evenodd" clip-rule="evenodd" d="M0 81.2795H115.98V67.0947C109.501 67.0947 103.139 62.956 97.1285 63.4482C85.107 64.451 73.8271 70.2854 61.4933 68.8268C52.3015 67.7328 41.4704 59.6924 31.8102 59.6924C22.2086 59.6924 9.60162 67.0947 0 67.0947V81.2795Z" fill="#E9AA45"/>
<path fill-rule="evenodd" clip-rule="evenodd" d="M0 81.2795H115.98V73.8043C109.501 73.8043 103.53 77.5966 97.4993 78.0889C85.4778 79.0916 76.0909 73.8225 63.7766 72.3639C54.5653 71.27 41.8412 70.6318 32.181 70.6318C22.5989 70.6318 9.60162 73.8043 0 73.8043V81.2795Z" fill="#E5A029"/>
<path fill-rule="evenodd" clip-rule="evenodd" d="M115.98 67.8058V67.0947C109.501 67.0947 103.139 62.956 97.1285 63.4482C85.107 64.451 73.8271 70.2854 61.4933 68.8268C52.3015 67.7328 41.4704 59.6924 31.8102 59.6924C22.2086 59.6924 9.60162 67.0947 0 67.0947V67.8058C9.60162 67.8058 22.2086 60.4034 31.8102 60.4034C41.4704 60.4034 52.3015 68.4439 61.4933 69.5378C73.8271 70.9964 85.107 65.1621 97.1285 64.1593C103.139 63.6488 109.501 67.8058 115.98 67.8058Z" fill="#F3CE97"/>
<path d="M18.3055 67.3314C19.4049 67.3314 20.2961 66.9151 20.2961 66.4015C20.2961 65.888 19.4049 65.4717 18.3055 65.4717C17.2062 65.4717 16.3149 65.888 16.3149 66.4015C16.3149 66.9151 17.2062 67.3314 18.3055 67.3314Z" fill="#CB9322"/>
<path d="M36.1037 65.107C36.9659 65.107 37.6649 64.8539 37.6649 64.5418C37.6649 64.2296 36.9659 63.9766 36.1037 63.9766C35.2414 63.9766 34.5424 64.2296 34.5424 64.5418C34.5424 64.8539 35.2414 65.107 36.1037 65.107Z" fill="#F3CE97"/>
<path d="M42.0949 73.768C42.6661 73.768 43.1292 73.5885 43.1292 73.3669C43.1292 73.1454 42.6661 72.9658 42.0949 72.9658C41.5236 72.9658 41.0605 73.1454 41.0605 73.3669C41.0605 73.5885 41.5236 73.768 42.0949 73.768Z" fill="#CB9322"/>
<path d="M77.0276 72.3459C77.5988 72.3459 78.0619 72.1499 78.0619 71.9083C78.0619 71.6666 77.5988 71.4707 77.0276 71.4707C76.4564 71.4707 75.9933 71.6666 75.9933 71.9083C75.9933 72.1499 76.4564 72.3459 77.0276 72.3459Z" fill="#CB9322"/>
<path d="M70.607 77.5603C70.9196 77.5603 71.173 77.5194 71.173 77.4691C71.173 77.4187 70.9196 77.3779 70.607 77.3779C70.2945 77.3779 70.0411 77.4187 70.0411 77.4691C70.0411 77.5194 70.2945 77.5603 70.607 77.5603Z" fill="#F3CE97"/>
<path d="M103.354 69.4288C103.774 69.4288 104.115 69.3308 104.115 69.21C104.115 69.0892 103.774 68.9912 103.354 68.9912C102.934 68.9912 102.593 69.0892 102.593 69.21C102.593 69.3308 102.934 69.4288 103.354 69.4288Z" fill="#F3CE97"/>
<path d="M107.003 74.4608C107.553 74.4608 107.999 74.2241 107.999 73.9321C107.999 73.64 107.553 73.4033 107.003 73.4033C106.454 73.4033 106.008 73.64 106.008 73.9321C106.008 74.2241 106.454 74.4608 107.003 74.4608Z" fill="#CB9322"/>
<defs>
<linearGradient id="paint0_linear" x1="57.9951" y1="0" x2="57.9951" y2="81.2728" gradientUnits="userSpaceOnUse">
<stop stop-color="#B8DCFE"/>
<stop offset="1" stop-color="#FEFEFE"/>
</linearGradient>
</defs>
</svg>
