<svg width="371" height="371" viewBox="0 0 371 371" fill="none" xmlns="http://www.w3.org/2000/svg">
<g clip-path="url(#clip0)">
<path d="M214.386 184.472L213.254 238.139L245.166 226.553L253.416 246.131L257.336 216.62L230.339 217.693C237.735 205.703 231.863 189.957 218.422 185.738L214.386 184.472Z" fill="#99E28F"/>
<path d="M159.118 192.655L204.285 199.341L240.563 268.24C242.042 271.048 242.168 274.376 240.907 277.288L219.489 326.762C216.638 333.349 221.174 340.772 228.336 341.239C233.078 341.548 237.371 344.154 239.833 348.219L244.856 356.51L204.831 363.213L189.607 327.463L196.157 282.319L150.556 257.568C150.557 257.568 142.971 227.746 159.118 192.655Z" fill="#93CE89"/>
<path d="M364.22 154.553L346.26 148.273L325.82 176.383C287.49 175.103 244.05 152.103 244.05 152.103C243.32 153.603 242.64 155.123 242 156.653C224.67 198.033 238.94 247.933 238.94 247.933C231.27 270.933 204.44 301.593 204.44 301.593C130.33 328.433 0 320.763 0 320.763C0 320.763 0.01 320.763 0.03 320.753C58.8 296.453 111.17 201.933 111.17 201.933C154.61 77.9926 208.27 3.89258 208.27 3.89258C314.32 24.3326 367.99 63.9426 367.99 63.9426C374.37 112.493 364.22 154.553 364.22 154.553Z" fill="#99E28F"/>
<path d="M238.94 247.932C231.27 270.932 204.44 301.592 204.44 301.592C130.33 328.432 0 320.762 0 320.762C0 320.762 0.01 320.762 0.03 320.752C2.61 319.852 167.77 261.962 178.36 253.372C205.7 229.552 213.95 148.202 213.95 148.202L242 156.652C224.67 198.032 238.94 247.932 238.94 247.932Z" fill="#72BA81"/>
<path d="M139.275 190.436C139.275 190.436 117.19 205.703 111.69 257.203L133.014 272.554L145.15 267.883L139.275 190.436Z" fill="#72BA81"/>
<path d="M139.275 190.436L182.717 204.491L207.117 278.436C208.112 281.45 207.687 284.752 205.962 287.417L176.667 332.674C172.767 338.699 176.015 346.77 183.001 348.414C187.627 349.503 191.43 352.782 193.187 357.197L196.771 366.203H156.19L147.08 328.429L160.996 284.987L120.109 253.044C120.109 253.044 117.554 222.379 139.275 190.436Z" fill="#99E28F"/>
<path d="M346.265 148.272L258.103 107.385L241.493 117.607L259.691 114.204C259.691 114.204 316.616 137.15 340.154 156.677L346.265 148.272Z" fill="#72BA81"/>
<path d="M244.048 152.104L208.272 131.661L204.439 67.7754L202.691 142.202C202.691 142.202 224.731 154.437 240.461 160.569L244.048 152.104Z" fill="#72BA81"/>
<path d="M189.349 174.775L217.548 220.451L238.049 193.39L255.61 205.347L242.873 178.44L220.788 194.005C220.486 179.921 207.002 169.889 193.425 173.647L189.349 174.775Z" fill="#99E28F"/>
<path d="M261.19 40.7021C261.19 40.7021 270.69 41.2021 278.19 48.7021L275.69 53.7021C275.69 53.7021 264.69 54.2021 257.69 52.7021C257.69 52.7021 256.19 43.2021 261.19 40.7021Z" fill="#4D4D4D"/>
<path d="M323.65 137.782C323.34 138.772 322.93 139.812 322.46 140.842C319.82 146.692 315.19 152.702 315.19 152.702C311.8 147.282 312.22 140.192 312.84 136.192C313.14 134.282 313.48 133.072 313.48 133.072L323.65 137.782Z" fill="white"/>
<path d="M309.43 131.192L307.57 133.642L302.19 140.702C301.23 138.772 301.23 133.892 301.36 130.642C301.43 128.832 301.54 127.532 301.54 127.532L309.43 131.192Z" fill="white"/>
<path d="M339.43 144.692L337 147.882L332.19 154.202C331.32 152.462 331.24 148.312 331.33 145.132C331.39 142.822 331.54 141.032 331.54 141.032L339.43 144.692Z" fill="white"/>
<path d="M301.54 127.532L309.43 131.192L307.57 133.642L301.36 130.642C301.43 128.832 301.54 127.532 301.54 127.532Z" fill="#CCCCCC"/>
<path d="M313.48 133.072L323.65 137.782C323.34 138.772 322.93 139.812 322.46 140.842L312.84 136.192C313.14 134.282 313.48 133.072 313.48 133.072Z" fill="#CCCCCC"/>
<path d="M339.43 144.692L337 147.882L331.33 145.132C331.39 142.822 331.54 141.032 331.54 141.032L339.43 144.692Z" fill="#CCCCCC"/>
<path d="M221.69 48.7021C226.661 48.7021 230.69 44.6727 230.69 39.7021C230.69 34.7316 226.661 30.7021 221.69 30.7021C216.719 30.7021 212.69 34.7316 212.69 39.7021C212.69 44.6727 216.719 48.7021 221.69 48.7021Z" fill="#72BA81"/>
<path d="M208.69 29.0352C211.451 29.0352 213.69 26.7966 213.69 24.0352C213.69 21.2737 211.451 19.0352 208.69 19.0352C205.929 19.0352 203.69 21.2737 203.69 24.0352C203.69 26.7966 205.929 29.0352 208.69 29.0352Z" fill="#72BA81"/>
<path d="M235.857 54.3691C237.238 54.3691 238.357 53.2499 238.357 51.8691C238.357 50.4884 237.238 49.3691 235.857 49.3691C234.476 49.3691 233.357 50.4884 233.357 51.8691C233.357 53.2499 234.476 54.3691 235.857 54.3691Z" fill="#72BA81"/>
<path d="M183.857 68.2022C185.238 68.2022 186.357 67.0829 186.357 65.7022C186.357 64.3214 185.238 63.2021 183.857 63.2021C182.476 63.2021 181.357 64.3214 181.357 65.7022C181.357 67.0829 182.476 68.2022 183.857 68.2022Z" fill="#72BA81"/>
<path d="M201.69 45.8691C203.071 45.8691 204.19 44.7499 204.19 43.3691C204.19 41.9884 203.071 40.8691 201.69 40.8691C200.309 40.8691 199.19 41.9884 199.19 43.3691C199.19 44.7499 200.309 45.8691 201.69 45.8691Z" fill="#72BA81"/>
<path d="M207.357 60.1315C209.895 60.1315 211.953 58.0738 211.953 55.5355C211.953 52.9972 209.895 50.9395 207.357 50.9395C204.819 50.9395 202.761 52.9972 202.761 55.5355C202.761 58.0738 204.819 60.1315 207.357 60.1315Z" fill="#72BA81"/>
<path d="M189.349 174.775L201.047 211.487L204.285 199.341L189.349 174.775Z" fill="#72BA81"/>
</g>
<defs>
<clipPath id="clip0">
<rect width="370.096" height="370.096" fill="white"/>
</clipPath>
</defs>
</svg>
