<svg width="371" height="371" viewBox="0 0 371 371" fill="none" xmlns="http://www.w3.org/2000/svg">
<g clip-path="url(#clip0)">
<path d="M214.386 184.472L213.254 238.139L245.166 226.553L253.416 246.131L257.336 216.62L230.339 217.693C237.735 205.703 231.863 189.957 218.422 185.738L214.386 184.472Z" fill="#99E28F"/>
<path d="M147.291 198.936L192.95 199.083L238.723 262.075C240.589 264.642 241.191 267.917 240.36 270.98L226.25 323.012C224.371 329.939 229.924 336.636 237.079 336.072C241.816 335.699 246.438 337.663 249.457 341.333L255.616 348.819L216.964 361.187L196.776 327.986L196.792 282.369L148.116 264.406C148.117 264.406 136.337 235.978 147.291 198.936Z" fill="#93CE89"/>
<path d="M364.355 158.357L346.533 151.697L325.501 179.367C287.207 177.274 244.264 153.357 244.264 153.357C243.503 154.842 242.791 156.347 242.118 157.863C223.914 198.866 237.122 249.057 237.122 249.057C228.966 271.889 201.491 301.973 201.491 301.973C126.828 327.235 -3.30962 316.801 -3.30962 316.801C-3.30962 316.801 -3.29962 316.801 -3.27941 316.791C55.993 293.744 110.357 200.356 110.357 200.356C156.417 77.3661 211.638 4.42152 211.638 4.42152C317.23 27.1073 370.047 67.8473 370.047 67.8473C375.396 116.522 364.355 158.357 364.355 158.357Z" fill="#99E28F"/>
<path d="M237.122 249.057C228.966 271.889 201.491 301.973 201.491 301.973C126.828 327.234 -3.30961 316.8 -3.30961 316.8C-3.30961 316.8 -3.29961 316.801 -3.2794 316.791C-0.680883 315.946 165.67 261.574 176.44 253.21C204.28 229.976 214.254 148.819 214.254 148.819L242.118 157.863C223.914 198.866 237.122 249.057 237.122 249.057Z" fill="#72BA81"/>
<path d="M176.328 189.653C176.328 189.653 149.968 194.753 124.228 239.696L137.581 262.325L150.571 262.927L176.328 189.653Z" fill="#72BA81"/>
<path d="M176.328 189.653L210.454 219.987L203.067 297.503C202.766 300.662 201.049 303.515 198.398 305.261L153.38 334.922C147.387 338.871 147.116 347.567 152.852 351.881C156.65 354.738 158.814 359.269 158.647 364.018L158.308 373.705L121.151 357.39L127.996 319.14L158.203 284.959L133.608 239.273C133.608 239.273 143.597 210.168 176.328 189.653Z" fill="#99E28F"/>
<path d="M346.265 148.272L258.103 107.385L241.493 117.607L259.691 114.204C259.691 114.204 316.616 137.15 340.154 156.677L346.265 148.272Z" fill="#72BA81"/>
<path d="M244.048 152.105L208.272 131.662L204.439 67.7764L202.691 142.203C202.691 142.203 224.731 154.438 240.461 160.57L244.048 152.105Z" fill="#72BA81"/>
<path d="M189.349 174.776L217.548 220.452L238.049 193.391L255.61 205.348L242.873 178.441L220.788 194.006C220.486 179.922 207.002 169.89 193.425 173.648L189.349 174.776Z" fill="#99E28F"/>
<path d="M261.19 40.7031C261.19 40.7031 270.69 41.2031 278.19 48.7031L275.69 53.7031C275.69 53.7031 264.69 54.2031 257.69 52.7031C257.69 52.7031 256.19 43.2031 261.19 40.7031Z" fill="#4D4D4D"/>
<path d="M323.65 137.783C323.34 138.773 322.93 139.813 322.46 140.843C319.82 146.693 315.19 152.703 315.19 152.703C311.8 147.283 312.22 140.193 312.84 136.193C313.14 134.283 313.48 133.073 313.48 133.073L323.65 137.783Z" fill="white"/>
<path d="M309.43 131.193L307.57 133.643L302.19 140.703C301.23 138.773 301.23 133.893 301.36 130.643C301.43 128.833 301.54 127.533 301.54 127.533L309.43 131.193Z" fill="white"/>
<path d="M339.43 144.693L337 147.883L332.19 154.203C331.32 152.463 331.24 148.313 331.33 145.133C331.39 142.823 331.54 141.033 331.54 141.033L339.43 144.693Z" fill="white"/>
<path d="M301.54 127.533L309.43 131.193L307.57 133.643L301.36 130.643C301.43 128.833 301.54 127.533 301.54 127.533Z" fill="#CCCCCC"/>
<path d="M313.48 133.073L323.65 137.783C323.34 138.773 322.93 139.813 322.46 140.843L312.84 136.193C313.14 134.283 313.48 133.073 313.48 133.073Z" fill="#CCCCCC"/>
<path d="M339.43 144.693L337 147.883L331.33 145.133C331.39 142.823 331.54 141.033 331.54 141.033L339.43 144.693Z" fill="#CCCCCC"/>
<path d="M221.69 48.7031C226.661 48.7031 230.69 44.6737 230.69 39.7031C230.69 34.7326 226.661 30.7031 221.69 30.7031C216.719 30.7031 212.69 34.7326 212.69 39.7031C212.69 44.6737 216.719 48.7031 221.69 48.7031Z" fill="#72BA81"/>
<path d="M208.69 29.0361C211.451 29.0361 213.69 26.7976 213.69 24.0361C213.69 21.2747 211.451 19.0361 208.69 19.0361C205.929 19.0361 203.69 21.2747 203.69 24.0361C203.69 26.7976 205.929 29.0361 208.69 29.0361Z" fill="#72BA81"/>
<path d="M235.857 54.3701C237.238 54.3701 238.357 53.2508 238.357 51.8701C238.357 50.4894 237.238 49.3701 235.857 49.3701C234.476 49.3701 233.357 50.4894 233.357 51.8701C233.357 53.2508 234.476 54.3701 235.857 54.3701Z" fill="#72BA81"/>
<path d="M183.857 68.2031C185.238 68.2031 186.357 67.0838 186.357 65.7031C186.357 64.3224 185.238 63.2031 183.857 63.2031C182.476 63.2031 181.357 64.3224 181.357 65.7031C181.357 67.0838 182.476 68.2031 183.857 68.2031Z" fill="#72BA81"/>
<path d="M201.69 45.8701C203.071 45.8701 204.19 44.7508 204.19 43.3701C204.19 41.9894 203.071 40.8701 201.69 40.8701C200.309 40.8701 199.19 41.9894 199.19 43.3701C199.19 44.7508 200.309 45.8701 201.69 45.8701Z" fill="#72BA81"/>
<path d="M207.357 60.1324C209.895 60.1324 211.953 58.0747 211.953 55.5364C211.953 52.9981 209.895 50.9404 207.357 50.9404C204.819 50.9404 202.761 52.9981 202.761 55.5364C202.761 58.0747 204.819 60.1324 207.357 60.1324Z" fill="#72BA81"/>
<path d="M189.349 174.776L201.047 211.488L204.285 199.342L189.349 174.776Z" fill="#72BA81"/>
</g>
<defs>
<clipPath id="clip0">
<rect width="370.096" height="370.096" fill="white"/>
</clipPath>
</defs>
</svg>
