<svg width="64" height="64" xmlns="http://www.w3.org/2000/svg">
 <title/>
 <desc/>

 <g>
  <title>background</title>
  <rect fill="none" id="canvas_background" height="402" width="582" y="-1" x="-1"/>
 </g>
 <g>
  <title>Layer 1</title>
  <path fill="#918f8f" id="key" d="m13.472865,21.270315l-1.5,1.5l0,0l2.5,2.5l-3,3l-2.5,-2.5l-1.87547,1.87546c-0.84135,0.84136 -2.204,0.845119 -3.04213,0.00699l0.03515,0.035151c-0.83683,-0.83683 -0.83501,-2.200151 0.00698,-3.042141l12.1574,-12.15739c-0.49964,-0.96347 -0.78193,-2.0578 -0.78193,-3.21807c0,-3.86599 3.134,-7 6.999999,-7c3.86599,0 7,3.13401 7,7c0,3.86599 -3.13401,7 -7,7c-1.160271,0 -2.254601,-0.28229 -3.218071,-0.781931l0,0l-2.781929,2.781931l2,2l-2.999999,3l-2,-2l0,0l0,0zm8.999999,-8c2.209141,0 4,-1.79086 4,-4c0,-2.20914 -1.790859,-4 -4,-4c-2.209141,0 -4,1.79086 -4,4c0,2.20914 1.790859,4 4,4l0,0z"/>
 </g>
</svg>