<svg viewbox="0 0 100 0"  xmlns="http://www.w3.org/2000/svg">
 <defs>
  <linearGradient y2="-Infinity" y1="Infinity" x2="Infinity" x1="Infinity" id="SVGID_1_">
   <stop stop-color="#FFB900" offset="0"/>
   <stop stop-color="#9100EB" offset="1"/>
  </linearGradient>
 </defs>
 <g>
  <title>background</title>
  <rect fill="none" id="canvas_background" height="402" width="582" y="-1" x="-1"/>
 </g>
 <g>
  <title>Layer 1</title>
  <path id="svg_1" fill="url(#SVGID_1_)" d="m128,112c0,8.800003 -7.199997,16 -16,16l-96,0c-8.8,0 -16,-7.199997 -16,-16l0,-96c0,-8.8 7.2,-16 16,-16l96,0c8.800003,0 16,7.2 16,16l0,96z"/>
  <path id="svg_4" fill="#FFFFFF" d="m86,112l-44,0c-14.336,0 -26,-11.663002 -26,-26l0,-44c0,-14.336 11.664,-26 26,-26l44,0c14.336998,0 26,11.664 26,26l0,44c0,14.336998 -11.663002,26 -26,26zm-44,-88c-9.924999,0 -18,8.075001 -18,18l0,44c0,9.925003 8.075001,18 18,18l44,0c9.925003,0 18,-8.074997 18,-18l0,-44c0,-9.924999 -8.074997,-18 -18,-18l-44,0z"/>
  <path id="svg_6" fill="#FFFFFF" d="m64,88c-13.234001,0 -24,-10.766998 -24,-24c0,-13.234001 10.765999,-24 24,-24c13.233002,0 24,10.765999 24,24c0,13.233002 -10.766998,24 -24,24zm0,-40c-8.821999,0 -16,7.178001 -16,16s7.178001,16 16,16s16,-7.178001 16,-16s-7.178001,-16 -16,-16z"/>
  <circle id="svg_8" r="5.5" fill="#FFFFFF" cy="38.5" cx="89.5"/>
 </g>
</svg>