<svg viewbox="0 0 100 0" xmlns="http://www.w3.org/2000/svg">

 <g>
  <title>background</title>
  <rect fill="none" id="canvas_background" height="402" width="582" y="-1" x="-1"/>
 </g>
 <g>
  <title>Layer 1</title>
  <path id="svg_2" fill="#55ACEE" d="m32,30c0,1.104 -0.896,2 -2,2l-28,0c-1.104,0 -2,-0.896 -2,-2l0,-28c0,-1.104 0.896,-2 2,-2l28,0c1.104,0 2,0.896 2,2l0,28z"/>
  <path id="svg_3" fill="#FFFFFF" d="m25.987,9.894c-0.736,0.322 -1.525,0.537 -2.357,0.635c0.85,-0.498 1.5,-1.289001 1.806002,-2.231c-0.792002,0.460999 -1.67,0.797 -2.605001,0.978c-0.747999,-0.785 -1.813999,-1.276 -2.993,-1.276c-2.265999,0 -4.099999,1.807 -4.099999,4.038c0,0.314 0.036,0.625 0.104,0.922c-3.407,-0.172 -6.429,-1.779 -8.452,-4.221c-0.352,0.597 -0.556,1.29 -0.556,2.032c0,1.399 0.726,2.635 1.824,3.36c-0.671,-0.021999 -1.304,-0.202999 -1.856,-0.506c-0.001,0.017 -0.001,0.034 -0.001,0.052c0,1.955 1.414,3.589001 3.289999,3.959999c-0.342999,0.09 -0.705,0.142 -1.080999,0.142c-0.264,0 -0.52,-0.024 -0.77,-0.071999c0.52,1.604 2.034,2.771 3.828,2.804998c-1.398,1.082001 -3.168,1.728001 -5.089,1.728001c-0.33,0 -0.658,-0.018 -0.979,-0.056c1.814,1.145 3.971,1.813 6.287,1.813c7.540999,0 11.665999,-6.153999 11.665999,-11.491c0,-0.172999 -0.004999,-0.349999 -0.011999,-0.521c0.799999,-0.571 1.497,-1.282 2.046,-2.091z"/>
 </g>
</svg>